<mxfile host="65bd71144e">
    <diagram id="4L50nwfFlZnbp-pLiw7v" name="Page-1">
        <mxGraphModel dx="1012" dy="825" grid="1" gridSize="10" guides="1" tooltips="1" connect="1" arrows="1" fold="1" page="1" pageScale="1" pageWidth="1100" pageHeight="850" math="0" shadow="0">
            <root>
                <mxCell id="0"/>
                <mxCell id="1" parent="0"/>
                <mxCell id="4" value="VPC" style="points=[[0,0],[0.25,0],[0.5,0],[0.75,0],[1,0],[1,0.25],[1,0.5],[1,0.75],[1,1],[0.75,1],[0.5,1],[0.25,1],[0,1],[0,0.75],[0,0.5],[0,0.25]];outlineConnect=0;gradientColor=none;html=1;whiteSpace=wrap;fontSize=12;fontStyle=0;container=1;pointerEvents=0;collapsible=0;recursiveResize=0;shape=mxgraph.aws4.group;grIcon=mxgraph.aws4.group_vpc;strokeColor=#248814;fillColor=none;verticalAlign=top;align=left;spacingLeft=30;fontColor=#AAB7B8;dashed=0;" parent="1" vertex="1">
                    <mxGeometry x="470" y="240" width="420" height="370" as="geometry"/>
                </mxCell>
                <mxCell id="5" value="AWS Cloud" style="sketch=0;outlineConnect=0;gradientColor=none;html=1;whiteSpace=wrap;fontSize=12;fontStyle=0;shape=mxgraph.aws4.group;grIcon=mxgraph.aws4.group_aws_cloud;strokeColor=#AAB7B8;fillColor=none;verticalAlign=top;align=left;spacingLeft=30;fontColor=#AAB7B8;dashed=0;" parent="1" vertex="1">
                    <mxGeometry x="400" y="160" width="560" height="510" as="geometry"/>
                </mxCell>
                <mxCell id="6" value="" style="outlineConnect=0;dashed=0;verticalLabelPosition=bottom;verticalAlign=top;align=center;html=1;shape=mxgraph.aws3.ec2;fillColor=#F58534;gradientColor=none;strokeWidth=2;strokeColor=#FFFFFF;fontColor=#FFFFFF;" parent="1" vertex="1">
                    <mxGeometry x="540" y="369" width="76.5" height="93" as="geometry"/>
                </mxCell>
                <mxCell id="8" style="edgeStyle=none;html=1;strokeWidth=2;strokeColor=#FFFFFF;fontColor=#FFFFFF;" parent="1" source="7" target="6" edge="1">
                    <mxGeometry relative="1" as="geometry"/>
                </mxCell>
                <mxCell id="7" value="" style="sketch=0;pointerEvents=1;shadow=0;dashed=0;html=1;strokeColor=#FFFFFF;fillColor=#DF8C42;labelPosition=center;verticalLabelPosition=bottom;verticalAlign=top;align=center;outlineConnect=0;shape=mxgraph.veeam2.open_vpn;strokeWidth=2;fontColor=#FFFFFF;" parent="1" vertex="1">
                    <mxGeometry x="750" y="374" width="80" height="82" as="geometry"/>
                </mxCell>
                <mxCell id="10" value="OpenVPN API" style="text;html=1;align=center;verticalAlign=middle;resizable=0;points=[];autosize=1;strokeColor=none;fillColor=none;strokeWidth=2;fontColor=#FFFFFF;" parent="1" vertex="1">
                    <mxGeometry x="740" y="462" width="100" height="30" as="geometry"/>
                </mxCell>
                <mxCell id="12" style="edgeStyle=none;html=1;strokeWidth=2;strokeColor=#FFFFFF;fontColor=#FFFFFF;" parent="1" source="11" target="6" edge="1">
                    <mxGeometry relative="1" as="geometry"/>
                </mxCell>
                <mxCell id="11" value="" style="shape=mxgraph.cisco.computers_and_peripherals.web_browser;html=1;pointerEvents=1;dashed=0;fillColor=#036897;strokeColor=#FFFFFF;strokeWidth=2;verticalLabelPosition=bottom;verticalAlign=top;align=center;outlineConnect=0;fontColor=#FFFFFF;" parent="1" vertex="1">
                    <mxGeometry x="160" y="383" width="62" height="64" as="geometry"/>
                </mxCell>
                <mxCell id="13" value="Web Browser" style="text;html=1;align=center;verticalAlign=middle;resizable=0;points=[];autosize=1;strokeColor=none;fillColor=none;strokeWidth=2;fontColor=#FFFFFF;" parent="1" vertex="1">
                    <mxGeometry x="141" y="456" width="100" height="30" as="geometry"/>
                </mxCell>
            </root>
        </mxGraphModel>
    </diagram>
</mxfile>